<svg xmlns="http://www.w3.org/2000/svg" viewBox="0 0 640 260" role="img" aria-label="">
  <defs>
    <linearGradient id="bg" x1="0" y1="0" x2="1" y2="1"><stop stop-color="#493247"/><stop offset=".58" stop-color="#20233a"/><stop offset="1" stop-color="#131621"/></linearGradient>
    <radialGradient id="blast" cx=".6" cy=".56" r=".32"><stop stop-color="#f2b84a" stop-opacity=".76"/><stop offset=".48" stop-color="#d23a2e" stop-opacity=".35"/><stop offset="1" stop-color="#000" stop-opacity="0"/></radialGradient>
  </defs>
  <rect width="640" height="260" fill="url(#bg)"/>
  <rect width="640" height="260" fill="url(#blast)"/>
  <path d="M0 198 C110 154 214 166 324 126 C426 88 526 92 640 68 L640 260 L0 260 Z" fill="#111522" opacity=".74"/>
  <g transform="translate(86 114)">
    <rect x="-18" y="70" width="324" height="18" rx="9" fill="#070a13" opacity=".58"/>
    <rect x="0" y="30" width="88" height="54" rx="8" fill="#d93a31"/>
    <rect x="88" y="30" width="64" height="54" fill="#f1b83d"/>
    <rect x="152" y="30" width="96" height="54" rx="8" fill="#6e8799"/>
    <rect x="44" y="6" width="20" height="78" fill="#c8d0d0"/>
    <rect x="196" y="-10" width="20" height="94" fill="#c8d0d0"/>
  </g>
  <g transform="translate(378 48)" fill="#111522">
    <path d="M0 18 L46 0 L98 18 L48 25 Z"/>
    <rect x="44" y="18" width="8" height="26" rx="4"/>
    <path d="M34 42 L16 58 M62 42 L80 58" stroke="#111522" stroke-width="6" stroke-linecap="round"/>
  </g>
  <g fill="none" stroke-linecap="round">
    <path d="M356 74 C416 94 462 124 524 164" stroke="#eef5f5" stroke-width="6" opacity=".52"/>
    <path d="M404 46 C466 74 526 116 602 132" stroke="#f2b84a" stroke-width="4" opacity=".8"/>
    <path d="M430 66 C486 102 538 140 618 166" stroke="#d93a31" stroke-width="3" opacity=".82"/>
  </g>
  <g transform="translate(520 142)">
    <circle r="28" fill="#f2b84a" opacity=".42"/>
    <circle r="14" fill="#e64836" opacity=".78"/>
  </g>
</svg>
