<svg xmlns="http://www.w3.org/2000/svg" viewBox="0 0 640 260" role="img" aria-label="">
  <defs>
    <linearGradient id="bg" x1="0" y1="0" x2="1" y2="1"><stop stop-color="#6b332e"/><stop offset=".58" stop-color="#262036"/><stop offset="1" stop-color="#141622"/></linearGradient>
    <radialGradient id="fireglow" cx=".42" cy=".52" r=".52"><stop stop-color="#f2a63b" stop-opacity=".74"/><stop offset=".45" stop-color="#d23a2e" stop-opacity=".28"/><stop offset="1" stop-color="#000" stop-opacity="0"/></radialGradient>
  </defs>
  <rect width="640" height="260" fill="url(#bg)"/>
  <rect width="640" height="260" fill="url(#fireglow)"/>
  <path d="M0 150 C126 112 220 122 326 88 C448 48 548 72 640 46 L640 260 L0 260 Z" fill="#121522" opacity=".78"/>
  <g transform="translate(88 76)">
    <rect x="-18" y="126" width="326" height="18" rx="9" fill="#070a13" opacity=".56"/>
    <rect x="0" y="88" width="96" height="52" rx="8" fill="#8a969c"/>
    <rect x="104" y="58" width="66" height="82" fill="#dfe6e6"/>
    <rect x="176" y="98" width="116" height="42" rx="8" fill="#d94a3b"/>
    <rect x="22" y="44" width="18" height="96" fill="#c8d0d0"/>
    <rect x="212" y="34" width="18" height="64" fill="#c8d0d0"/>
    <path d="M31 40 C36 14 58 8 66 0 C72 28 58 40 42 50 Z" fill="#f2b84a"/>
    <path d="M221 30 C226 10 244 6 250 0 C256 22 246 34 232 42 Z" fill="#f2b84a"/>
  </g>
  <g transform="translate(386 48)">
    <path d="M52 126 C14 104 16 64 48 44 C48 74 74 72 76 30 C124 64 138 112 92 140 C112 106 86 88 78 66 C76 104 48 100 52 126 Z" fill="#f6d665"/>
    <path d="M66 136 C30 110 36 80 62 54 C60 86 90 88 90 44 C128 80 126 120 92 144 C104 112 82 96 78 76 C74 106 54 112 66 136 Z" fill="#e64836"/>
    <path d="M82 140 C62 124 66 102 82 86 C82 108 98 106 100 78 C124 104 118 132 96 146 Z" fill="#fff0a6"/>
  </g>
  <g transform="translate(416 34)" opacity=".54" fill="none" stroke-linecap="round">
    <path d="M0 22 C48 0 98 8 138 34" stroke="#dfe6e6" stroke-width="5"/>
    <path d="M30 52 C86 30 142 44 190 82" stroke="#dfe6e6" stroke-width="5"/>
  </g>
</svg>
