<svg xmlns="http://www.w3.org/2000/svg" viewBox="0 0 640 260" role="img" aria-label="">
  <defs>
    <linearGradient id="sky" x1="0" y1="0" x2="1" y2="1"><stop stop-color="#274c60"/><stop offset=".62" stop-color="#1b2535"/><stop offset="1" stop-color="#151827"/></linearGradient>
    <linearGradient id="road" x1="0" y1="1" x2="1" y2="0"><stop stop-color="#111522"/><stop offset="1" stop-color="#334456"/></linearGradient>
    <filter id="soft" x="-20%" y="-20%" width="140%" height="140%"><feGaussianBlur stdDeviation="10"/></filter>
  </defs>
  <rect width="640" height="260" fill="url(#sky)"/>
  <circle cx="80" cy="66" r="72" fill="#e8d46b" opacity=".16"/>
  <path d="M0 132 C98 105 188 118 282 96 C402 68 504 74 640 42 L640 260 L0 260 Z" fill="#223240" opacity=".82"/>
  <path d="M0 210 C128 164 216 176 328 136 C438 96 520 106 640 78 L640 260 L0 260 Z" fill="url(#road)"/>
  <path d="M22 218 C154 170 270 174 390 128 C484 92 562 92 640 72" fill="none" stroke="#dfe6e6" stroke-width="14" opacity=".72"/>
  <path d="M22 218 C154 170 270 174 390 128 C484 92 562 92 640 72" fill="none" stroke="#d34a3c" stroke-width="5" opacity=".95"/>
  <g transform="translate(94 116)">
    <rect x="-22" y="42" width="250" height="24" rx="12" fill="#060913" opacity=".34" filter="url(#soft)"/>
    <rect x="0" y="20" width="96" height="50" rx="9" fill="#f1f4f1"/>
    <rect x="0" y="20" width="36" height="50" rx="9" fill="#e8cf5a"/>
    <rect x="36" y="20" width="22" height="50" fill="#c83a32"/>
    <rect x="96" y="36" width="26" height="34" rx="5" fill="#d7dfdf"/>
    <circle cx="24" cy="76" r="8" fill="#0b0e18"/>
    <circle cx="92" cy="76" r="8" fill="#0b0e18"/>
    <rect x="138" y="28" width="66" height="38" rx="8" fill="#9aa6ad"/>
    <circle cx="154" cy="72" r="6" fill="#0b0e18"/>
    <circle cx="194" cy="72" r="6" fill="#0b0e18"/>
  </g>
  <g transform="translate(438 54)" opacity=".72">
    <rect x="0" y="36" width="118" height="12" rx="6" fill="#111522"/>
    <rect x="12" y="0" width="92" height="46" rx="8" fill="#f4efe2" opacity=".78"/>
    <rect x="28" y="10" width="60" height="12" rx="6" fill="#d23a2e"/>
    <rect x="32" y="28" width="52" height="8" rx="4" fill="#857d6c"/>
  </g>
</svg>
