<svg xmlns="http://www.w3.org/2000/svg" viewBox="0 0 640 260" role="img" aria-label="">
  <defs>
    <linearGradient id="bg" x1="0" y1="0" x2="1" y2="1"><stop stop-color="#263f37"/><stop offset=".62" stop-color="#182536"/><stop offset="1" stop-color="#141827"/></linearGradient>
    <radialGradient id="lamp" cx=".2" cy=".25" r=".55"><stop stop-color="#efc64f" stop-opacity=".26"/><stop offset="1" stop-color="#efc64f" stop-opacity="0"/></radialGradient>
  </defs>
  <rect width="640" height="260" fill="url(#bg)"/>
  <rect width="640" height="260" fill="url(#lamp)"/>
  <path d="M0 196 C112 150 224 158 344 116 C462 76 546 92 640 116 L640 260 L0 260 Z" fill="#111522" opacity=".72"/>
  <g transform="translate(104 58)">
    <rect x="-24" y="112" width="300" height="18" rx="9" fill="#0b0e18" opacity=".55"/>
    <rect x="0" y="32" width="112" height="102" rx="12" fill="#e7eeee"/>
    <rect x="14" y="46" width="82" height="34" rx="6" fill="#111827"/>
    <rect x="14" y="92" width="44" height="20" rx="5" fill="#d23a2e"/>
    <rect x="66" y="92" width="30" height="20" rx="5" fill="#857d6c"/>
    <path d="M112 58 C164 50 166 96 206 92" fill="none" stroke="#dfe6e6" stroke-width="12" stroke-linecap="round"/>
    <path d="M206 92 L244 118" stroke="#dfe6e6" stroke-width="12" stroke-linecap="round"/>
    <circle cx="42" cy="124" r="7" fill="#151823"/>
    <circle cx="90" cy="124" r="7" fill="#151823"/>
  </g>
  <g transform="translate(330 54)" fill="none" stroke-linecap="round">
    <path d="M0 78 C54 34 112 20 186 36" stroke="#c6d0d0" stroke-width="5" opacity=".54"/>
    <path d="M28 112 C96 68 168 74 232 122" stroke="#c6d0d0" stroke-width="5" opacity=".45"/>
    <path d="M70 26 L88 44 M166 30 L150 52 M214 104 L188 102" stroke="#d23a2e" stroke-width="5" opacity=".82"/>
  </g>
  <g transform="translate(458 44)" opacity=".72">
    <path d="M0 70 A70 70 0 0 1 140 70" fill="none" stroke="#dfe6e6" stroke-width="10" opacity=".36"/>
    <path d="M70 70 L118 34" stroke="#d23a2e" stroke-width="8" stroke-linecap="round"/>
    <circle cx="70" cy="70" r="8" fill="#efc64f"/>
  </g>
</svg>
