<svg xmlns="http://www.w3.org/2000/svg" viewBox="0 0 640 260" role="img" aria-label="">
  <defs>
    <linearGradient id="bg" x1="0" y1="0" x2="1" y2="1"><stop stop-color="#2f4050"/><stop offset=".62" stop-color="#20283a"/><stop offset="1" stop-color="#131722"/></linearGradient>
  </defs>
  <rect width="640" height="260" fill="url(#bg)"/>
  <path d="M0 204 C120 156 218 174 326 132 C430 92 526 96 640 62 L640 260 L0 260 Z" fill="#111522" opacity=".72"/>
  <g transform="translate(72 42)">
    <rect x="-18" y="132" width="372" height="20" rx="10" fill="#070a13" opacity=".58"/>
    <circle cx="40" cy="100" r="44" fill="#7f8b91"/>
    <circle cx="118" cy="100" r="44" fill="#a0aaae"/>
    <rect x="190" y="66" width="118" height="74" rx="8" fill="#dfe6e6"/>
    <rect x="302" y="96" width="128" height="44" rx="8" fill="#d95242"/>
    <rect x="40" y="54" width="18" height="86" fill="#c8d0d0"/>
    <rect x="342" y="38" width="18" height="58" fill="#c8d0d0"/>
    <path d="M49 50 C54 28 72 20 80 8 C86 32 74 44 60 56 Z" fill="#f0b73d"/>
    <path d="M351 34 C356 14 374 8 382 0 C388 22 376 34 362 42 Z" fill="#f0b73d"/>
    <path d="M132 74 H190 M308 112 H430" stroke="#8a969c" stroke-width="12" stroke-linecap="round"/>
  </g>
  <g transform="translate(410 40)" opacity=".38" fill="none" stroke="#dfe6e6" stroke-width="5" stroke-linecap="round">
    <path d="M0 56 C44 22 102 24 158 54"/>
    <path d="M20 88 C74 54 140 68 202 106"/>
    <path d="M56 24 L88 44 M126 42 L104 66 M180 94 L148 94"/>
  </g>
</svg>
